<?xml version="1.0" encoding="UTF-8"?>
<svg id="b" data-name="Layer 2" xmlns="http://www.w3.org/2000/svg" width="1em" height="1em" fill="currentColor" viewBox="0 0 12 12">
  <g id="c" data-name="Layer 1">
    <g>
      <path d="M9.33,6.67c-1.24,0-2.27.85-2.57,2H1.33c-.37,0-.67.3-.67.67s.3.67.67.67h5.43c.3,1.15,1.33,2,2.57,2,1.47,0,2.67-1.2,2.67-2.67s-1.2-2.67-2.67-2.67ZM9.33,10.67c-.74,0-1.33-.6-1.33-1.33s.6-1.33,1.33-1.33,1.33.6,1.33,1.33-.6,1.33-1.33,1.33Z"/>
      <path d="M2.67,5.33c1.24,0,2.27-.85,2.57-2h5.43c.37,0,.67-.3.67-.67s-.3-.67-.67-.67h-5.43c-.3-1.15-1.33-2-2.57-2C1.2,0,0,1.2,0,2.67s1.2,2.67,2.67,2.67ZM2.67,1.33c.74,0,1.33.6,1.33,1.33s-.6,1.33-1.33,1.33-1.33-.6-1.33-1.33.6-1.33,1.33-1.33Z"/>
    </g>
  </g>
</svg>